<?xml version="1.0" standalone="no"?>
<!DOCTYPE svg PUBLIC "-//W3C//DTD SVG 20010904//EN"
 "http://www.w3.org/TR/2001/REC-SVG-20010904/DTD/svg10.dtd">
<svg version="1.0" xmlns="http://www.w3.org/2000/svg"
 width="610.000000pt" height="210.000000pt" viewBox="0 0 610.000000 210.000000"
 preserveAspectRatio="xMidYMid meet">

<g transform="translate(0.000000,210.000000) scale(0.100000,-0.100000)"
fill="#000000" stroke="none">
<path d="M0 1050 l0 -1050 3050 0 3050 0 0 1050 0 1050 -3050 0 -3050 0 0
-1050z m3088 765 c-14 -91 -5 -304 22 -515 29 -225 24 -420 -15 -570 -26 -100
-83 -255 -91 -247 -2 2 3 35 11 73 23 108 18 288 -16 591 -33 301 -32 378 11
530 19 70 80 217 86 210 2 -2 -2 -34 -8 -72z m-717 -1505 c26 -21 11 -27 -20
-8 -24 15 -51 4 -51 -22 0 -13 10 -24 27 -31 36 -13 63 -38 63 -57 0 -43 -73
-70 -100 -37 -17 21 -7 29 18 14 25 -16 52 -5 52 21 0 13 -12 26 -37 37 -29
14 -39 25 -41 46 -7 55 43 76 89 37z m437 4 c42 -29 18 -104 -35 -104 -20 0
-23 -5 -23 -36 0 -24 -4 -34 -12 -32 -9 3 -14 34 -16 96 l-3 92 33 0 c19 0 44
-7 56 -16z m737 6 c23 -9 26 -15 23 -47 -2 -28 -9 -41 -26 -49 -14 -7 -19 -14
-13 -18 17 -11 53 -66 42 -66 -5 0 -26 17 -45 38 l-36 37 0 -38 c0 -27 -4 -37
-12 -35 -9 3 -14 34 -16 96 l-3 92 30 0 c16 0 42 -4 56 -10z m261 -75 c18 -44
33 -86 34 -92 0 -22 -16 -14 -28 12 -10 21 -19 25 -52 25 -33 0 -42 -4 -52
-25 -11 -23 -28 -34 -28 -17 -1 20 74 182 83 179 5 -1 25 -39 43 -82z m-1206
65 c0 -5 -16 -10 -35 -10 -32 0 -35 -2 -35 -30 0 -28 3 -30 36 -30 21 0 33 -4
29 -10 -3 -5 -19 -10 -36 -10 -26 0 -29 -3 -29 -30 0 -28 3 -30 35 -30 19 0
35 -4 35 -10 0 -5 -22 -10 -50 -10 l-50 0 0 90 0 90 50 0 c28 0 50 -4 50 -10z
m370 -30 l0 -40 45 0 45 0 0 40 c0 29 4 40 15 40 12 0 15 -17 15 -90 0 -73 -3
-90 -15 -90 -11 0 -15 11 -15 40 l0 40 -45 0 -45 0 0 -40 c0 -29 -4 -40 -15
-40 -12 0 -15 17 -15 90 0 73 3 90 15 90 11 0 15 -11 15 -40z m375 15 c37 -36
35 -97 -4 -136 -73 -73 -188 8 -147 104 17 42 39 56 89 57 27 0 45 -7 62 -25z"/>
<path d="M2750 270 c0 -32 4 -40 18 -40 41 0 57 51 23 70 -33 17 -41 11 -41
-30z"/>
<path d="M3490 270 c0 -41 8 -47 41 -30 34 19 18 70 -23 70 -14 0 -18 -8 -18
-40z"/>
<path d="M3746 258 c-21 -49 -21 -48 14 -48 34 0 36 5 16 51 l-15 34 -15 -37z"/>
<path d="M3230 280 c-30 -30 -27 -83 6 -109 35 -27 59 -26 89 4 30 30 32 64 4
99 -25 32 -70 35 -99 6z"/>
</g>
</svg>
